<svg width="130" height="74" viewBox="0 0 130 74" fill="none" xmlns="http://www.w3.org/2000/svg">
<path d="M143.303 20.4438C143.321 20.3006 143.321 20.1557 143.303 20.0125C143.339 19.3297 143.375 18.6828 143.375 18C143.388 9.48387 140.469 1.22285 135.109 -5.3953C134.985 -5.63079 134.813 -5.8386 134.606 -6.00624C130.644 -10.7424 125.569 -14.4221 119.836 -16.7156L119.441 -16.8594C110.794 -20.2139 101.206 -20.2139 92.5594 -16.8594L92.1641 -16.7156C86.4309 -14.4221 81.356 -10.7424 77.3938 -6.00624C77.1866 -5.8386 77.0155 -5.63079 76.8907 -5.3953C71.5311 1.22285 68.6125 9.48387 68.625 18C68.625 18.6828 68.661 19.3297 68.6969 20.0125C68.6789 20.1557 68.6789 20.3006 68.6969 20.4438C69.1114 26.6188 71.0499 32.5949 74.3391 37.8375C74.4496 38.0541 74.5821 38.2588 74.7344 38.4484C79.7857 46.1581 87.5005 51.7363 96.4047 54.1172H96.5125C102.733 55.7463 109.267 55.7463 115.488 54.1172H115.595C124.5 51.7363 132.214 46.1581 137.266 38.4484C137.418 38.2588 137.55 38.0541 137.661 37.8375C140.95 32.5949 142.889 26.6188 143.303 20.4438ZM84.6172 14.0828L89.361 15.6281L93.925 29.7156L91.0141 33.7406H78.5797C76.3835 29.9617 75.0118 25.7609 74.5547 21.4141L84.6172 14.0828ZM127.383 14.0828L137.445 21.4141C136.988 25.7609 135.617 29.9617 133.42 33.7406H120.986L118.075 29.7156L122.639 15.6281L127.383 14.0828ZM129.431 -3.20312L125.586 8.62032L120.842 10.1656L108.875 1.43282V-3.52656L118.938 -10.8578C122.933 -9.06897 126.508 -6.46114 129.431 -3.20312ZM93.0625 -10.8578L103.125 -3.52656V1.43282L91.1579 10.1656L86.4141 8.62032L82.5688 -3.20312C85.4923 -6.46114 89.0673 -9.06897 93.0625 -10.8578ZM99.5313 48.9422L95.686 37.1188L98.5969 33.0938H113.403L116.314 37.1188L112.469 48.9422C108.204 49.8527 103.796 49.8527 99.5313 48.9422Z" fill="#7E7E7E"/>
<path d="M16.4705 66.669C16.2512 66.5618 16.0615 66.4028 15.9176 66.2057L13.4674 62.8667C13.4195 62.8016 13.3565 62.7491 13.2839 62.7137C13.2112 62.6783 13.1311 62.661 13.0503 62.6633L8.907 62.7864C8.62719 62.795 8.35055 62.7251 8.10839 62.5847C7.86622 62.4442 7.6682 62.2388 7.53672 61.9916C7.40525 61.7445 7.34555 61.4655 7.36441 61.1861C7.38326 60.9068 7.4799 60.6384 7.64339 60.4111L10.062 57.0491C10.1093 56.9834 10.1399 56.9073 10.1513 56.8272C10.1626 56.747 10.1544 56.6654 10.1272 56.5891L8.73052 52.6914C8.6359 52.4279 8.61694 52.1431 8.67578 51.8693C8.73462 51.5956 8.86892 51.3437 9.06347 51.1423C9.25803 50.941 9.50507 50.798 9.77663 50.7298C10.0482 50.6615 10.3335 50.6706 10.6001 50.7561L14.5482 52.0142C14.6253 52.0388 14.7072 52.0443 14.7869 52.0303C14.8666 52.0162 14.9417 51.9831 15.0058 51.9336L18.2814 49.399C18.5028 49.2278 18.7676 49.1219 19.046 49.0933C19.3244 49.0647 19.6052 49.1146 19.8567 49.2373C20.1083 49.36 20.3205 49.5506 20.4693 49.7875C20.6182 50.0245 20.6978 50.2984 20.6992 50.5782L20.7185 54.7199C20.7188 54.8009 20.7388 54.8807 20.7767 54.9523C20.8147 55.0239 20.8695 55.0853 20.9364 55.131L24.3584 57.4676C24.5899 57.6251 24.7727 57.8443 24.8861 58.1003C24.9995 58.3563 25.039 58.639 25.0001 58.9163C24.9612 59.1936 24.8454 59.4544 24.6659 59.6693C24.4864 59.8843 24.2503 60.0446 23.9844 60.1323L20.0522 61.431C19.9753 61.4563 19.9057 61.5 19.8494 61.5582C19.7931 61.6164 19.7518 61.6874 19.729 61.7651L18.5687 65.7409C18.5075 65.9507 18.4013 66.1446 18.2573 66.309C18.1134 66.4735 17.9353 66.6045 17.7354 66.6929C17.5356 66.7813 17.3188 66.8249 17.1003 66.8208C16.8818 66.8167 16.6669 66.7649 16.4705 66.669ZM14.2742 62.2755L16.7244 65.6101C16.7796 65.6852 16.8547 65.7434 16.9412 65.778C17.0278 65.8127 17.1223 65.8224 17.2141 65.8062C17.3059 65.79 17.3913 65.7485 17.4607 65.6863C17.5302 65.6241 17.5808 65.5437 17.607 65.4543L18.7673 61.4785C18.8355 61.245 18.9594 61.0315 19.1285 60.8566C19.2976 60.6816 19.5066 60.5504 19.7377 60.4743L23.6695 59.1766C23.7582 59.1473 23.8368 59.0939 23.8967 59.0223C23.9565 58.9507 23.9951 58.8638 24.0081 58.7714C24.0211 58.679 24.008 58.5848 23.9703 58.4994C23.9325 58.4141 23.8716 58.341 23.7945 58.2885L20.3725 55.9519C20.1713 55.8149 20.0065 55.6311 19.8923 55.4162C19.778 55.2014 19.7178 54.9619 19.7167 54.7186L19.6961 50.5863C19.6908 50.4948 19.6613 50.4064 19.6105 50.3301C19.5597 50.2538 19.4895 50.1924 19.4071 50.1522C19.3248 50.1121 19.2332 50.0946 19.1418 50.1015C19.0504 50.1085 18.9625 50.1396 18.8872 50.1918L15.6143 52.7277C15.4218 52.8765 15.1961 52.9762 14.9566 53.0183C14.717 53.0604 14.4708 53.0436 14.2392 52.9694L10.2911 51.7113C10.2022 51.6829 10.1071 51.6799 10.0167 51.7027C9.92616 51.7255 9.84386 51.7731 9.77904 51.8403C9.71423 51.9074 9.6695 51.9914 9.64991 52.0826C9.63032 52.1738 9.63666 52.2687 9.6682 52.3566L11.0702 56.2525C11.1527 56.4821 11.1779 56.7283 11.1436 56.9699C11.1094 57.2114 11.0167 57.441 10.8737 57.6386L8.45513 61.0006C8.40057 61.0764 8.36831 61.1659 8.36202 61.2591C8.35572 61.3522 8.37564 61.4453 8.41951 61.5277C8.46338 61.6101 8.52945 61.6786 8.61024 61.7254C8.69103 61.7722 8.78331 61.7955 8.87663 61.7925L13.0158 61.6618C13.2597 61.6541 13.5017 61.7059 13.721 61.8129C13.9403 61.9198 14.1301 62.0786 14.2742 62.2755Z" fill="#7E7E7E"/>
<path d="M48.4706 58.669C48.2514 58.5618 48.0616 58.4028 47.9177 58.2057L45.4675 54.8667C45.4196 54.8016 45.3566 54.7491 45.284 54.7137C45.2114 54.6783 45.1312 54.661 45.0504 54.6633L40.9071 54.7864C40.6273 54.795 40.3507 54.7251 40.1085 54.5847C39.8663 54.4442 39.6683 54.2388 39.5368 53.9916C39.4054 53.7445 39.3457 53.4655 39.3645 53.1861C39.3834 52.9068 39.48 52.6384 39.6435 52.4111L42.0621 49.0491C42.1094 48.9834 42.14 48.9073 42.1514 48.8272C42.1627 48.747 42.1545 48.6654 42.1273 48.5891L40.7306 44.6914C40.636 44.4279 40.6171 44.1431 40.6759 43.8693C40.7347 43.5956 40.869 43.3437 41.0636 43.1423C41.2581 42.941 41.5052 42.798 41.7768 42.7298C42.0483 42.6615 42.3336 42.6706 42.6002 42.7561L46.5483 44.0142C46.6254 44.0388 46.7073 44.0443 46.787 44.0303C46.8668 44.0162 46.9419 43.9831 47.0059 43.9336L50.2815 41.399C50.5029 41.2278 50.7677 41.1219 51.0461 41.0933C51.3245 41.0647 51.6053 41.1146 51.8569 41.2373C52.1084 41.36 52.3206 41.5506 52.4695 41.7875C52.6183 42.0245 52.6979 42.2984 52.6993 42.5782L52.7187 46.7199C52.7189 46.8009 52.7389 46.8807 52.7769 46.9523C52.8148 47.0239 52.8696 47.0853 52.9365 47.131L56.3585 49.4676C56.59 49.6251 56.7729 49.8443 56.8863 50.1003C56.9997 50.3563 57.0391 50.639 57.0002 50.9163C56.9613 51.1936 56.8455 51.4544 56.666 51.6693C56.4865 51.8843 56.2505 52.0446 55.9845 52.1323L52.0523 53.431C51.9754 53.4563 51.9058 53.5 51.8495 53.5582C51.7932 53.6164 51.7519 53.6874 51.7291 53.7651L50.5688 57.7409C50.5077 57.9507 50.4014 58.1446 50.2575 58.309C50.1135 58.4735 49.9354 58.6045 49.7356 58.6929C49.5357 58.7813 49.3189 58.8249 49.1004 58.8208C48.8819 58.8167 48.667 58.7649 48.4706 58.669ZM46.2743 54.2755L48.7245 57.6101C48.7797 57.6852 48.8548 57.7434 48.9414 57.778C49.0279 57.8127 49.1224 57.8224 49.2142 57.8062C49.306 57.79 49.3914 57.7485 49.4608 57.6863C49.5303 57.6241 49.5809 57.5437 49.6071 57.4543L50.7674 53.4785C50.8356 53.245 50.9596 53.0315 51.1286 52.8566C51.2977 52.6816 51.5068 52.5504 51.7378 52.4743L55.6696 51.1766C55.7583 51.1473 55.837 51.0939 55.8968 51.0223C55.9566 50.9507 55.9952 50.8638 56.0082 50.7714C56.0212 50.679 56.0081 50.5848 55.9704 50.4994C55.9326 50.4141 55.8717 50.341 55.7946 50.2885L52.3726 47.9519C52.1714 47.8149 52.0066 47.6311 51.8924 47.4162C51.7782 47.2014 51.7179 46.9619 51.7168 46.7186L51.6962 42.5863C51.6909 42.4948 51.6614 42.4064 51.6106 42.3301C51.5598 42.2538 51.4896 42.1924 51.4073 42.1522C51.3249 42.1121 51.2333 42.0946 51.1419 42.1015C51.0505 42.1085 50.9626 42.1396 50.8873 42.1918L47.6144 44.7277C47.422 44.8765 47.1962 44.9762 46.9567 45.0183C46.7171 45.0604 46.4709 45.0436 46.2393 44.9694L42.2912 43.7113C42.2023 43.6829 42.1073 43.6799 42.0168 43.7027C41.9263 43.7255 41.844 43.7731 41.7792 43.8403C41.7144 43.9074 41.6696 43.9914 41.65 44.0826C41.6304 44.1738 41.6368 44.2687 41.6683 44.3566L43.0704 48.2525C43.1528 48.4821 43.178 48.7283 43.1437 48.9699C43.1095 49.2114 43.0168 49.441 42.8738 49.6386L40.4552 53.0006C40.4007 53.0764 40.3684 53.1659 40.3621 53.2591C40.3558 53.3522 40.3758 53.4453 40.4196 53.5277C40.4635 53.6101 40.5296 53.6786 40.6104 53.7254C40.6911 53.7722 40.7834 53.7955 40.8768 53.7925L45.016 53.6618C45.2598 53.6541 45.5018 53.7059 45.7211 53.8129C45.9404 53.9198 46.1303 54.0786 46.2743 54.2755Z" fill="#7E7E7E"/>
<path d="M26.4705 40.669C26.2512 40.5618 26.0615 40.4028 25.9176 40.2057L23.4674 36.8667C23.4195 36.8016 23.3565 36.7491 23.2839 36.7137C23.2112 36.6783 23.1311 36.661 23.0503 36.6633L18.907 36.7864C18.6272 36.795 18.3505 36.7251 18.1084 36.5847C17.8662 36.4442 17.6682 36.2388 17.5367 35.9916C17.4052 35.7445 17.3456 35.4655 17.3644 35.1861C17.3833 34.9068 17.4799 34.6384 17.6434 34.4111L20.062 31.0491C20.1093 30.9834 20.1399 30.9073 20.1513 30.8272C20.1626 30.747 20.1544 30.6654 20.1272 30.5891L18.7305 26.6914C18.6359 26.4279 18.6169 26.1431 18.6758 25.8693C18.7346 25.5956 18.8689 25.3437 19.0635 25.1423C19.258 24.941 19.5051 24.798 19.7766 24.7298C20.0482 24.6615 20.3335 24.6706 20.6001 24.7561L24.5482 26.0142C24.6253 26.0388 24.7072 26.0443 24.7869 26.0303C24.8666 26.0162 24.9417 25.9831 25.0058 25.9336L28.2814 23.399C28.5028 23.2278 28.7676 23.1219 29.046 23.0933C29.3244 23.0647 29.6052 23.1146 29.8567 23.2373C30.1083 23.36 30.3205 23.5506 30.4693 23.7875C30.6182 24.0245 30.6978 24.2984 30.6992 24.5782L30.7185 28.7199C30.7188 28.8009 30.7388 28.8807 30.7767 28.9523C30.8147 29.0239 30.8695 29.0853 30.9364 29.131L34.3584 31.4676C34.5899 31.6251 34.7727 31.8443 34.8861 32.1003C34.9995 32.3563 35.039 32.639 35.0001 32.9163C34.9612 33.1936 34.8454 33.4544 34.6659 33.6693C34.4864 33.8843 34.2503 34.0446 33.9844 34.1323L30.0522 35.431C29.9753 35.4563 29.9057 35.5 29.8494 35.5582C29.7931 35.6164 29.7518 35.6874 29.729 35.7651L28.5687 39.7409C28.5075 39.9507 28.4013 40.1446 28.2573 40.309C28.1134 40.4735 27.9353 40.6045 27.7354 40.6929C27.5356 40.7813 27.3188 40.8249 27.1003 40.8208C26.8818 40.8167 26.6669 40.7649 26.4705 40.669ZM24.2742 36.2755L26.7244 39.6101C26.7796 39.6852 26.8547 39.7434 26.9412 39.778C27.0278 39.8127 27.1223 39.8224 27.2141 39.8062C27.3059 39.79 27.3913 39.7485 27.4607 39.6863C27.5302 39.6241 27.5808 39.5437 27.607 39.4543L28.7673 35.4785C28.8355 35.245 28.9594 35.0315 29.1285 34.8566C29.2976 34.6816 29.5066 34.5504 29.7377 34.4743L33.6695 33.1766C33.7582 33.1473 33.8368 33.0939 33.8967 33.0223C33.9565 32.9507 33.9951 32.8638 34.0081 32.7714C34.0211 32.679 34.008 32.5848 33.9703 32.4994C33.9325 32.4141 33.8716 32.341 33.7945 32.2885L30.3725 29.9519C30.1713 29.8149 30.0065 29.6311 29.8923 29.4162C29.778 29.2014 29.7178 28.9619 29.7167 28.7186L29.6961 24.5863C29.6908 24.4948 29.6613 24.4064 29.6105 24.3301C29.5597 24.2538 29.4895 24.1924 29.4071 24.1522C29.3248 24.1121 29.2332 24.0946 29.1418 24.1015C29.0504 24.1085 28.9625 24.1396 28.8872 24.1918L25.6143 26.7277C25.4218 26.8765 25.1961 26.9762 24.9566 27.0183C24.717 27.0604 24.4708 27.0436 24.2392 26.9694L20.2911 25.7113C20.2022 25.6829 20.1071 25.6799 20.0167 25.7027C19.9262 25.7255 19.8439 25.7731 19.779 25.8403C19.7142 25.9074 19.6695 25.9914 19.6499 26.0826C19.6303 26.1738 19.6367 26.2687 19.6682 26.3566L21.0702 30.2525C21.1527 30.4821 21.1779 30.7283 21.1436 30.9699C21.1094 31.2114 21.0167 31.441 20.8737 31.6386L18.4551 35.0006C18.4006 35.0764 18.3683 35.1659 18.362 35.2591C18.3557 35.3522 18.3756 35.4453 18.4195 35.5277C18.4634 35.6101 18.5294 35.6786 18.6102 35.7254C18.691 35.7722 18.7833 35.7955 18.8766 35.7925L23.0158 35.6618C23.2597 35.6541 23.5017 35.7059 23.721 35.8129C23.9403 35.9198 24.1301 36.0786 24.2742 36.2755Z" fill="#7E7E7E"/>
<path d="M48.4705 25.669C48.2512 25.5618 48.0615 25.4028 47.9176 25.2057L45.4674 21.8667C45.4195 21.8016 45.3565 21.7491 45.2839 21.7137C45.2112 21.6783 45.1311 21.661 45.0503 21.6633L40.907 21.7864C40.6272 21.795 40.3505 21.7251 40.1084 21.5847C39.8662 21.4442 39.6682 21.2388 39.5367 20.9916C39.4052 20.7445 39.3456 20.4655 39.3644 20.1861C39.3833 19.9068 39.4799 19.6384 39.6434 19.4111L42.062 16.0491C42.1093 15.9834 42.1399 15.9073 42.1513 15.8272C42.1626 15.747 42.1544 15.6654 42.1272 15.5891L40.7305 11.6914C40.6359 11.4279 40.6169 11.1431 40.6758 10.8693C40.7346 10.5956 40.8689 10.3437 41.0635 10.1423C41.258 9.94095 41.5051 9.79804 41.7766 9.72978C42.0482 9.66152 42.3335 9.67064 42.6001 9.75611L46.5482 11.0142C46.6253 11.0388 46.7072 11.0443 46.7869 11.0303C46.8666 11.0162 46.9417 10.9831 47.0058 10.9336L50.2814 8.39902C50.5028 8.22779 50.7676 8.12191 51.046 8.09333C51.3244 8.06475 51.6052 8.11461 51.8567 8.23729C52.1083 8.35997 52.3205 8.55057 52.4693 8.78753C52.6182 9.0245 52.6978 9.29839 52.6992 9.57824L52.7185 13.7199C52.7188 13.8009 52.7388 13.8807 52.7767 13.9523C52.8147 14.0239 52.8695 14.0853 52.9364 14.131L56.3584 16.4676C56.5899 16.6251 56.7727 16.8443 56.8861 17.1003C56.9995 17.3563 57.039 17.639 57.0001 17.9163C56.9612 18.1936 56.8454 18.4544 56.6659 18.6693C56.4864 18.8843 56.2503 19.0446 55.9844 19.1323L52.0522 20.431C51.9753 20.4563 51.9057 20.5 51.8494 20.5582C51.7931 20.6164 51.7518 20.6874 51.729 20.7651L50.5687 24.7409C50.5075 24.9507 50.4013 25.1446 50.2573 25.309C50.1134 25.4735 49.9353 25.6045 49.7354 25.6929C49.5356 25.7813 49.3188 25.8249 49.1003 25.8208C48.8818 25.8167 48.6669 25.7649 48.4705 25.669ZM46.2742 21.2755L48.7244 24.6101C48.7796 24.6852 48.8547 24.7434 48.9412 24.778C49.0278 24.8127 49.1223 24.8224 49.2141 24.8062C49.3059 24.79 49.3913 24.7485 49.4607 24.6863C49.5302 24.6241 49.5808 24.5437 49.607 24.4543L50.7673 20.4785C50.8355 20.245 50.9594 20.0315 51.1285 19.8566C51.2976 19.6816 51.5066 19.5504 51.7377 19.4743L55.6695 18.1766C55.7582 18.1473 55.8368 18.0939 55.8967 18.0223C55.9565 17.9507 55.9951 17.8638 56.0081 17.7714C56.0211 17.679 56.008 17.5848 55.9703 17.4994C55.9325 17.4141 55.8716 17.341 55.7945 17.2885L52.3725 14.9519C52.1713 14.8149 52.0065 14.6311 51.8923 14.4162C51.778 14.2014 51.7178 13.9619 51.7167 13.7186L51.6961 9.58634C51.6908 9.49484 51.6613 9.4064 51.6105 9.33011C51.5597 9.25381 51.4895 9.19242 51.4071 9.15224C51.3248 9.11207 51.2332 9.09455 51.1418 9.10151C51.0504 9.10846 50.9625 9.13963 50.8872 9.19181L47.6143 11.7277C47.4218 11.8765 47.1961 11.9762 46.9566 12.0183C46.717 12.0604 46.4708 12.0436 46.2392 11.9694L42.2911 10.7113C42.2022 10.6829 42.1071 10.6799 42.0167 10.7027C41.9262 10.7255 41.8439 10.7731 41.779 10.8403C41.7142 10.9074 41.6695 10.9914 41.6499 11.0826C41.6303 11.1738 41.6367 11.2687 41.6682 11.3566L43.0702 15.2525C43.1527 15.4821 43.1779 15.7283 43.1436 15.9699C43.1094 16.2114 43.0167 16.441 42.8737 16.6386L40.4551 20.0006C40.4006 20.0764 40.3683 20.1659 40.362 20.2591C40.3557 20.3522 40.3756 20.4453 40.4195 20.5277C40.4634 20.6101 40.5294 20.6786 40.6102 20.7254C40.691 20.7722 40.7833 20.7955 40.8766 20.7925L45.0158 20.6618C45.2597 20.6541 45.5017 20.7059 45.721 20.8129C45.9403 20.9198 46.1301 21.0786 46.2742 21.2755Z" fill="#7E7E7E"/>
</svg>
