<svg width="35" height="35" viewBox="0 0 35 35" fill="none" xmlns="http://www.w3.org/2000/svg">
<path d="M17.5 3.28125C9.65986 3.28125 3.28125 9.65986 3.28125 17.5C3.28125 25.3401 9.65986 31.7188 17.5 31.7188C25.3401 31.7188 31.7188 25.3401 31.7188 17.5C31.7188 9.65986 25.3401 3.28125 17.5 3.28125ZM27.2754 24.0625H24.1842C24.0884 24.0623 23.9943 24.0369 23.9114 23.9889C23.8285 23.9409 23.7597 23.872 23.7118 23.7891L22.6085 21.8969C22.5359 21.7732 22.5147 21.6259 22.5497 21.4867L23.5655 17.3906C23.5859 17.3081 23.6252 17.2314 23.6804 17.1668C23.7356 17.1021 23.8051 17.0512 23.8834 17.0181L25.8043 16.2046C25.8982 16.1648 26.0013 16.152 26.102 16.1677C26.2028 16.1834 26.2971 16.227 26.3744 16.2935L29.2202 18.7421C29.2904 18.8025 29.344 18.8797 29.3762 18.9665C29.4084 19.0533 29.418 19.1469 29.4041 19.2384C29.1684 20.8553 28.6035 22.4067 27.7443 23.7966C27.6958 23.8776 27.6271 23.9447 27.5449 23.9913C27.4627 24.0379 27.3699 24.0625 27.2754 24.0625ZM9.1957 16.2101L11.1166 17.0235C11.1949 17.0567 11.2644 17.1076 11.3196 17.1722C11.3748 17.2369 11.4141 17.3136 11.4345 17.3961L12.4503 21.4922C12.4853 21.6313 12.4641 21.7786 12.3915 21.9023L11.2882 23.7891C11.2403 23.872 11.1715 23.9409 11.0886 23.9889C11.0057 24.0369 10.9116 24.0623 10.8158 24.0625H7.72461C7.63112 24.0626 7.53917 24.0386 7.45755 23.9931C7.37593 23.9475 7.30736 23.8817 7.2584 23.8021C6.39922 22.4122 5.83432 20.8608 5.59863 19.2438C5.58478 19.1523 5.59438 19.0588 5.62654 18.972C5.6587 18.8852 5.71237 18.808 5.78252 18.7476L8.62832 16.2989C8.70535 16.233 8.79921 16.1897 8.89941 16.174C8.9996 16.1583 9.10219 16.1708 9.1957 16.2101ZM26.76 10.2464L25.5247 13.7587C25.4999 13.8305 25.4604 13.8963 25.4087 13.952C25.357 14.0076 25.2943 14.0519 25.2246 14.082L23.2025 14.9386C23.1097 14.9778 23.0079 14.9907 22.9083 14.9757C22.8086 14.9608 22.7151 14.9186 22.6379 14.8538L18.792 11.6279C18.7305 11.5771 18.681 11.5134 18.6467 11.4414C18.6125 11.3693 18.5944 11.2907 18.5938 11.2109V8.91543C18.5938 8.82549 18.616 8.73695 18.6585 8.65765C18.7009 8.57836 18.7623 8.51076 18.8371 8.46084L21.7649 6.50986C21.8414 6.45886 21.9294 6.42793 22.0209 6.41993C22.1124 6.41192 22.2045 6.4271 22.2886 6.46406C23.9733 7.19883 25.4683 8.30791 26.6602 9.70703C26.7228 9.78018 26.765 9.86858 26.7826 9.96329C26.8001 10.058 26.7923 10.1557 26.76 10.2464ZM13.2344 6.50986L16.1629 8.46084C16.2377 8.51076 16.2991 8.57836 16.3415 8.65765C16.384 8.73695 16.4062 8.82549 16.4062 8.91543V11.2109C16.4062 11.2908 16.3887 11.3697 16.355 11.4421C16.3212 11.5145 16.272 11.5787 16.2107 11.63L12.3648 14.8559C12.2877 14.9206 12.1941 14.9628 12.0945 14.9778C11.9948 14.9927 11.893 14.9799 11.8002 14.9406L9.77539 14.082C9.70522 14.0523 9.64203 14.0083 9.58988 13.9527C9.53773 13.8971 9.49777 13.8313 9.47256 13.7594L8.2373 10.2471C8.2052 10.156 8.19778 10.0581 8.21579 9.96323C8.2338 9.86838 8.2766 9.77998 8.33984 9.70703C9.53237 8.3065 11.0287 7.19644 12.7148 6.46133C12.7986 6.42549 12.89 6.41116 12.9808 6.41964C13.0715 6.42811 13.1587 6.45913 13.2344 6.50986ZM14.4177 28.8948L13.0689 25.498C13.0381 25.4208 13.0253 25.3376 13.0314 25.2547C13.0376 25.1718 13.0626 25.0913 13.1045 25.0195L14.1415 23.2422C14.1894 23.1592 14.2582 23.0903 14.3411 23.0423C14.424 22.9943 14.5181 22.969 14.6139 22.9688H20.3861C20.4819 22.969 20.576 22.9943 20.6589 23.0423C20.7418 23.0903 20.8106 23.1592 20.8585 23.2422L21.8962 25.0195C21.9382 25.0913 21.9633 25.1717 21.9696 25.2546C21.9759 25.3375 21.9632 25.4208 21.9324 25.498L20.5933 28.8935C20.5605 28.9765 20.5079 29.0502 20.4401 29.1082C20.3723 29.1663 20.2914 29.2068 20.2043 29.2264C18.4273 29.6342 16.5809 29.6342 14.8039 29.2264C14.7175 29.2066 14.6372 29.166 14.5699 29.1083C14.5026 29.0505 14.4504 28.9773 14.4177 28.8948Z" fill="white"/>
</svg>
