<svg width="102" height="97" viewBox="0 0 102 97" fill="none" xmlns="http://www.w3.org/2000/svg">
<path d="M62.225 109.989C60.9134 109.988 59.6219 109.666 58.4625 109.053L38.7577 98.6957C38.373 98.4942 37.9451 98.3889 37.5107 98.3889C37.0764 98.3889 36.6485 98.4942 36.2637 98.6957L16.5375 109.053C15.2059 109.754 13.7048 110.068 12.2039 109.96C10.7031 109.852 9.2624 109.327 8.04486 108.442C6.82733 107.558 5.88153 106.351 5.31447 104.957C4.7474 103.563 4.5817 102.039 4.83611 100.555L8.59861 78.6147C8.67229 78.1861 8.64084 77.746 8.50697 77.3322C8.37309 76.9184 8.14078 76.5432 7.82999 76.239L-8.10151 60.6999C-9.17959 59.6496 -9.94218 58.3186 -10.303 56.8574C-10.6637 55.3962 -10.6083 53.8632 -10.143 52.4318C-9.67759 51.0005 -8.82087 49.728 -7.66975 48.7584C-6.51864 47.7887 -5.11909 47.1607 -3.62951 46.9452L18.408 43.7202C18.8385 43.6575 19.2473 43.4912 19.5993 43.2356C19.9513 42.98 20.236 42.6428 20.429 42.2529L30.2814 22.2901C30.9473 20.9414 31.9772 19.8058 33.2548 19.0118C34.5323 18.2177 36.0065 17.7969 37.5107 17.7969C39.0149 17.7969 40.4891 18.2177 41.7667 19.0118C43.0442 19.8058 44.0742 20.9414 44.7401 22.2901L54.5925 42.2529C54.7848 42.6438 55.0692 42.9821 55.4212 43.2386C55.7733 43.4952 56.1825 43.6623 56.6135 43.7256L78.651 46.9506C80.1406 47.166 81.5401 47.7941 82.6912 48.7638C83.8423 49.7334 84.699 51.0059 85.1644 52.4372C85.6298 53.8685 85.6852 55.4016 85.3244 56.8628C84.9636 58.324 84.2011 59.655 83.123 60.7052L67.1861 76.2444C66.8744 76.5481 66.641 76.923 66.5062 77.3368C66.3714 77.7507 66.3391 78.191 66.4121 78.6201L70.1746 100.561C70.3735 101.719 70.317 102.906 70.0092 104.039C69.7013 105.173 69.1495 106.225 68.3923 107.123C67.635 108.021 66.6908 108.743 65.6255 109.238C64.5602 109.733 63.3996 109.989 62.225 109.989ZM41.2625 93.9389L60.9565 104.275C61.4002 104.508 61.9002 104.612 62.3999 104.575C62.8995 104.539 63.3791 104.363 63.7844 104.069C64.1896 103.774 64.5045 103.372 64.6934 102.908C64.8823 102.444 64.9377 101.936 64.8533 101.442L61.0909 79.5016C60.87 78.2127 60.966 76.8894 61.3705 75.6459C61.775 74.4024 62.476 73.2759 63.4128 72.3636L79.3497 56.8299C79.709 56.4799 79.9633 56.0364 80.0836 55.5494C80.204 55.0625 80.1856 54.5516 80.0307 54.0745C79.8758 53.5975 79.5905 53.1733 79.207 52.85C78.8235 52.5266 78.3572 52.3171 77.8608 52.245L55.8233 49.02C54.5289 48.8323 53.2996 48.3324 52.2415 47.5636C51.1833 46.7948 50.3281 45.7802 49.7496 44.6071L39.9134 24.6927C39.6723 24.2631 39.3212 23.9055 38.8961 23.6566C38.471 23.4076 37.9872 23.2764 37.4946 23.2764C37.002 23.2764 36.5183 23.4076 36.0931 23.6566C35.668 23.9055 35.3169 24.2631 35.0759 24.6927L25.2396 44.6555C24.6604 45.8275 23.8049 46.8411 22.7468 47.609C21.6887 48.3768 20.4597 48.8758 19.1659 49.063L-2.87164 52.288C-3.36802 52.3601 -3.83432 52.5696 -4.21779 52.893C-4.60126 53.2163 -4.8866 53.6405 -5.04152 54.1175C-5.19643 54.5946 -5.21476 55.1055 -5.09441 55.5924C-4.97406 56.0794 -4.71984 56.5229 -4.36051 56.8729L11.5925 72.3905C12.5317 73.3055 13.2336 74.4358 13.6373 75.6834C14.041 76.931 14.1343 78.2582 13.9091 79.55L10.1466 101.491C10.0616 101.985 10.1167 102.494 10.3058 102.959C10.4949 103.424 10.8104 103.826 11.2165 104.121C11.6226 104.416 12.1032 104.591 12.6038 104.627C13.1044 104.663 13.6049 104.557 14.0489 104.323L33.7375 93.9389C34.8972 93.3269 36.1887 93.0071 37.5 93.0071C38.8113 93.0071 40.1027 93.3269 41.2625 93.9389Z" fill="#363636"/>
</svg>
