<svg width="15" height="15" viewBox="0 0 15 15" fill="none" xmlns="http://www.w3.org/2000/svg">
<path d="M7.81274 5.46997C7.81274 5.38709 7.77982 5.30761 7.72122 5.249C7.66261 5.1904 7.58312 5.15747 7.50024 5.15747C7.41736 5.15747 7.33788 5.1904 7.27927 5.249C7.22067 5.30761 7.18774 5.38709 7.18774 5.46997V9.21997C7.18774 9.30285 7.22067 9.38234 7.27927 9.44094C7.33788 9.49955 7.41736 9.53247 7.50024 9.53247C7.58312 9.53247 7.66261 9.49955 7.72122 9.44094C7.77982 9.38234 7.81274 9.30285 7.81274 9.21997V5.46997Z" fill="#FFE600"/>
<path d="M7.49927 10.7725C7.67186 10.7725 7.81177 10.6325 7.81177 10.46C7.81177 10.2874 7.67186 10.1475 7.49927 10.1475C7.32668 10.1475 7.18677 10.2874 7.18677 10.46C7.18677 10.6325 7.32668 10.7725 7.49927 10.7725Z" fill="#FFE600"/>
<path d="M11.6513 13.0837H3.36565C3.09782 13.0836 2.83451 13.0147 2.60099 12.8835C2.36748 12.7524 2.1716 12.5634 2.03216 12.3347C1.89272 12.106 1.81441 11.8453 1.80473 11.5777C1.79505 11.31 1.85434 11.0444 1.9769 10.8062L6.12003 2.7631C6.2515 2.50813 6.45063 2.29427 6.6956 2.14497C6.94056 1.99567 7.2219 1.91669 7.50878 1.91669C7.79565 1.91669 8.07699 1.99567 8.32196 2.14497C8.56692 2.29427 8.76605 2.50813 8.89753 2.7631L13.0407 10.8062C13.1632 11.0444 13.2225 11.3101 13.2128 11.5778C13.2031 11.8455 13.1247 12.1063 12.9852 12.335C12.8457 12.5636 12.6498 12.7526 12.4162 12.8837C12.1826 13.0149 11.9192 13.0837 11.6513 13.0837ZM7.50878 2.5406C7.33615 2.53902 7.16653 2.58585 7.01916 2.67577C6.8718 2.76569 6.75258 2.89511 6.67503 3.04935L2.53253 11.0925C2.45905 11.2353 2.42353 11.3947 2.42936 11.5552C2.43519 11.7158 2.48218 11.8722 2.56582 12.0093C2.64946 12.1465 2.76695 12.2598 2.90701 12.3385C3.04706 12.4172 3.205 12.4586 3.36565 12.4587H11.6513C11.812 12.4587 11.97 12.4174 12.1101 12.3388C12.2503 12.2601 12.3679 12.1468 12.4516 12.0096C12.5353 11.8724 12.5823 11.716 12.5882 11.5554C12.594 11.3948 12.5585 11.2354 12.485 11.0925L8.34253 3.04935C8.26498 2.89511 8.14576 2.76569 7.99839 2.67577C7.85102 2.58585 7.68141 2.53902 7.50878 2.5406Z" fill="#FFE600"/>
</svg>
