<svg width="14" height="14" viewBox="0 0 14 14" fill="none" xmlns="http://www.w3.org/2000/svg">
<path d="M6.99994 12.7943C5.85395 12.7943 4.73369 12.4545 3.78083 11.8178C2.82797 11.1811 2.08531 10.2762 1.64675 9.21743C1.2082 8.15867 1.09345 6.99364 1.31703 5.86966C1.5406 4.74569 2.09245 3.71325 2.90279 2.90291C3.71313 2.09257 4.74557 1.54072 5.86954 1.31715C6.99352 1.09358 8.15855 1.20832 9.21731 1.64687C10.2761 2.08543 11.181 2.82809 11.8177 3.78095C12.4544 4.73381 12.7942 5.85407 12.7942 7.00007C12.7925 8.53628 12.1815 10.0091 11.0952 11.0953C10.009 12.1816 8.53615 12.7926 6.99994 12.7943ZM6.99994 1.78915C5.96932 1.78915 4.96184 2.09476 4.10491 2.66735C3.24798 3.23993 2.58008 4.05376 2.18568 5.00593C1.79128 5.9581 1.68809 7.00585 1.88915 8.01666C2.09022 9.02748 2.58651 9.95598 3.31527 10.6847C4.04403 11.4135 4.97252 11.9098 5.98334 12.1109C6.99416 12.3119 8.0419 12.2087 8.99408 11.8143C9.94625 11.4199 10.7601 10.752 11.3327 9.8951C11.9052 9.03817 12.2109 8.03069 12.2109 7.00007C12.2093 5.61852 11.6598 4.294 10.6829 3.31709C9.70601 2.34019 8.38149 1.79069 6.99994 1.78915Z" fill="white"/>
<path d="M10.5 7.29159H7.00002C6.96297 7.29352 6.92596 7.2872 6.89166 7.27308C6.85735 7.25895 6.82662 7.23738 6.80168 7.20992C6.79585 7.20992 6.79585 7.20409 6.79002 7.19825C6.76256 7.17331 6.74098 7.14258 6.72686 7.10828C6.71273 7.07398 6.70641 7.03696 6.70835 6.99992V3.49992C6.70835 3.42256 6.73908 3.34838 6.79378 3.29368C6.84847 3.23898 6.92266 3.20825 7.00002 3.20825C7.07737 3.20825 7.15156 3.23898 7.20626 3.29368C7.26095 3.34838 7.29168 3.42256 7.29168 3.49992V6.70825H10.5C10.5774 6.70825 10.6516 6.73898 10.7063 6.79368C10.761 6.84838 10.7917 6.92256 10.7917 6.99992C10.7917 7.07727 10.761 7.15146 10.7063 7.20616C10.6516 7.26086 10.5774 7.29159 10.5 7.29159Z" fill="white"/>
</svg>
