<svg width="14" height="14" viewBox="0 0 14 14" fill="none" xmlns="http://www.w3.org/2000/svg">
<path d="M11.0833 11.6663H2.91659C1.63325 11.6663 0.583252 10.6163 0.583252 9.33301V4.66634C0.583252 3.38301 1.63325 2.33301 2.91659 2.33301H11.0833C12.3666 2.33301 13.4166 3.38301 13.4166 4.66634V9.33301C13.4166 10.6163 12.3666 11.6663 11.0833 11.6663Z" fill="white"/>
<path d="M7 7.3502C6.65 7.3502 6.24166 7.23353 5.95 7.05853L3.03333 5.36686C2.74166 5.25019 2.625 4.84186 2.8 4.60853C2.91666 4.31686 3.325 4.20019 3.55833 4.37519L6.475 6.06686C6.76666 6.24186 7.175 6.24186 7.46666 6.06686L10.3833 4.37519C10.675 4.20019 11.025 4.31686 11.2 4.60853C11.375 4.90019 11.2583 5.25019 10.9667 5.42519L8.05 7.11686C7.75833 7.23353 7.35 7.3502 7 7.3502Z" fill="#363636"/>
</svg>
