<svg width="50" height="50" viewBox="0 0 50 50" fill="none" xmlns="http://www.w3.org/2000/svg">
<path d="M36.25 18.3583H35.4167V15.4416C35.625 9.60832 30.8333 4.81665 25 4.81665C19.1667 4.81665 14.375 9.60832 14.375 15.4416V18.5666H13.75C9.58333 18.5666 6.25 21.9 6.25 26.0666V39.1916C6.25 43.3583 9.58333 46.6916 13.75 46.6916H36.4583C40.625 46.6916 43.9583 43.3583 43.9583 39.1916V26.0666C43.75 21.6916 40.4167 18.3583 36.25 18.3583ZM18.5417 15.4416C18.5417 11.9 21.4583 8.98332 25 8.98332C28.5417 8.98332 31.4583 11.9 31.4583 15.4416V18.5666H18.5417V15.4416Z" fill="#2F2F2F"/>
<path d="M24.9998 39.6084C23.7498 39.6084 22.9165 38.7751 22.9165 37.5251V34.1917C22.9165 32.9417 23.7498 32.1084 24.9998 32.1084C26.2498 32.1084 27.0832 32.9417 27.0832 34.1917V37.5251C27.0832 38.7751 26.2498 39.6084 24.9998 39.6084Z" fill="#414141"/>
</svg>
