<svg width="14" height="14" viewBox="0 0 14 14" fill="none" xmlns="http://www.w3.org/2000/svg">
<path d="M9.91667 12.8337V11.0837H8.16667V9.91699H9.91667V8.16699H11.0833V9.91699H12.8333V11.0837H11.0833V12.8337H9.91667ZM2.91667 11.667C2.59583 11.667 2.32108 11.5529 2.09242 11.3246C1.86414 11.0959 1.75 10.8212 1.75 10.5003V3.50033C1.75 3.17949 1.86414 2.90494 2.09242 2.67666C2.32108 2.44799 2.59583 2.33366 2.91667 2.33366H3.5V1.16699H4.66667V2.33366H8.16667V1.16699H9.33333V2.33366H9.91667C10.2375 2.33366 10.5122 2.44799 10.7409 2.67666C10.9692 2.90494 11.0833 3.17949 11.0833 3.50033V7.05866C10.8889 7.02949 10.6944 7.01491 10.5 7.01491C10.3056 7.01491 10.1111 7.02949 9.91667 7.05866V5.83366H2.91667V10.5003H7C7 10.6948 7.01458 10.8892 7.04375 11.0837C7.07292 11.2781 7.12639 11.4726 7.20417 11.667H2.91667Z" fill="white"/>
</svg>
