<svg width="17" height="17" viewBox="0 0 17 17" fill="none" xmlns="http://www.w3.org/2000/svg">
<path d="M7.79175 14.8747V13.458H6.37508V12.0413H7.79175V10.5538C6.85911 10.3886 6.09458 9.94279 5.49817 9.21651C4.90175 8.49023 4.60378 7.6492 4.60425 6.69342C4.60425 5.61912 4.9851 4.70726 5.74679 3.95784C6.50848 3.20842 7.42625 2.83348 8.50008 2.83301C9.57439 2.83301 10.4924 3.20795 11.2541 3.95784C12.0158 4.70773 12.3964 5.61959 12.3959 6.69342C12.3959 7.64967 12.0977 8.49094 11.5013 9.21722C10.9049 9.94349 10.1406 10.389 9.20842 10.5538V12.0413H10.6251V13.458H9.20842V14.8747H7.79175ZM8.50008 9.20801C9.1848 9.20801 9.76918 8.96599 10.2532 8.48197C10.7372 7.99794 10.9792 7.41356 10.9792 6.72884C10.9792 6.04412 10.7372 5.45974 10.2532 4.97572C9.76918 4.49169 9.1848 4.24967 8.50008 4.24967C7.81536 4.24967 7.23098 4.49169 6.74696 4.97572C6.26293 5.45974 6.02092 6.04412 6.02092 6.72884C6.02092 7.41356 6.26293 7.99794 6.74696 8.48197C7.23098 8.96599 7.81536 9.20801 8.50008 9.20801Z" fill="#FF3D00"/>
</svg>
