<svg width="17" height="17" viewBox="0 0 17 17" fill="none" xmlns="http://www.w3.org/2000/svg">
<path d="M14.1666 2.83301V7.08301H12.7499V5.25905L9.93429 8.05696C10.1586 8.38752 10.3298 8.73862 10.4478 9.11026C10.5659 9.48237 10.6249 9.86912 10.6249 10.2705C10.6249 11.3566 10.2471 12.2774 9.49158 13.033C8.73603 13.7886 7.81519 14.1663 6.72908 14.1663C5.64297 14.1663 4.72214 13.7886 3.96658 13.033C3.21103 12.2774 2.83325 11.3566 2.83325 10.2705C2.83325 9.18439 3.21103 8.26356 3.96658 7.50801C4.72214 6.75245 5.64297 6.37467 6.72908 6.37467C7.11867 6.37467 7.50235 6.43087 7.88013 6.54326C8.2579 6.65517 8.60617 6.82919 8.92492 7.0653L11.7405 4.24967H9.91658V2.83301H14.1666ZM6.72908 7.79134C6.04436 7.79134 5.45999 8.03335 4.97596 8.51738C4.49193 9.00141 4.24992 9.58578 4.24992 10.2705C4.24992 10.9552 4.49193 11.5396 4.97596 12.0236C5.45999 12.5077 6.04436 12.7497 6.72908 12.7497C7.41381 12.7497 7.99818 12.5077 8.48221 12.0236C8.96624 11.5396 9.20825 10.9552 9.20825 10.2705C9.20825 9.58578 8.96624 9.00141 8.48221 8.51738C7.99818 8.03335 7.41381 7.79134 6.72908 7.79134Z" fill="#00D1FF"/>
</svg>
