<svg width="14" height="14" viewBox="0 0 14 14" fill="none" xmlns="http://www.w3.org/2000/svg">
<path d="M7.00008 6.70866C6.61331 6.70866 6.24237 6.55501 5.96888 6.28152C5.69539 6.00803 5.54175 5.6371 5.54175 5.25033C5.54175 4.86355 5.69539 4.49262 5.96888 4.21913C6.24237 3.94564 6.61331 3.79199 7.00008 3.79199C7.38686 3.79199 7.75779 3.94564 8.03128 4.21913C8.30477 4.49262 8.45842 4.86355 8.45842 5.25033C8.45842 5.44184 8.42069 5.63147 8.34741 5.80841C8.27412 5.98534 8.1667 6.1461 8.03128 6.28152C7.89586 6.41694 7.7351 6.52436 7.55816 6.59765C7.38123 6.67094 7.19159 6.70866 7.00008 6.70866ZM7.00008 1.16699C5.91711 1.16699 4.8785 1.5972 4.11273 2.36297C3.34696 3.12875 2.91675 4.16736 2.91675 5.25033C2.91675 8.31283 7.00008 12.8337 7.00008 12.8337C7.00008 12.8337 11.0834 8.31283 11.0834 5.25033C11.0834 4.16736 10.6532 3.12875 9.88743 2.36297C9.12166 1.5972 8.08305 1.16699 7.00008 1.16699Z" fill="white"/>
</svg>
