<svg width="14" height="14" viewBox="0 0 14 14" fill="none" xmlns="http://www.w3.org/2000/svg">
<path d="M2.91686 5.75244C4.03476 8.1872 6.02392 10.123 8.49696 11.1724L8.8934 11.349C9.80042 11.7532 10.8666 11.4462 11.4198 10.6216L11.9378 9.84947C12.1063 9.5984 12.055 9.26024 11.8197 9.07042L10.0627 7.65304C9.80474 7.44485 9.42528 7.49338 9.22782 7.75973L8.68433 8.49316C7.2897 7.80517 6.15739 6.67292 5.46946 5.27828L6.20283 4.73478C6.46924 4.53736 6.51771 4.15789 6.30952 3.89984L4.89213 2.14288C4.70234 1.90763 4.3643 1.85631 4.11325 2.02465L3.33576 2.54597C2.50606 3.10229 2.20076 4.17729 2.61418 5.08668L2.9164 5.75146L2.91686 5.75244Z" fill="white"/>
</svg>
