<svg width="33" height="33" viewBox="0 0 33 33" fill="none" xmlns="http://www.w3.org/2000/svg">
<path fill-rule="evenodd" clip-rule="evenodd" d="M16.5 12.0312C14.032 12.0312 12.0312 14.032 12.0312 16.5C12.0312 18.968 14.032 20.9687 16.5 20.9687C18.968 20.9687 20.9688 18.968 20.9688 16.5C20.9688 14.032 18.968 12.0312 16.5 12.0312ZM14.0938 16.5C14.0938 15.171 15.1711 14.0937 16.5 14.0937C17.829 14.0937 18.9063 15.171 18.9063 16.5C18.9063 17.8289 17.829 18.9062 16.5 18.9062C15.1711 18.9062 14.0938 17.8289 14.0938 16.5Z" fill="#7E7E7E"/>
<path fill-rule="evenodd" clip-rule="evenodd" d="M20.5518 6.71834L16.5 2.66663L12.4483 6.71834H6.71834V12.4483L2.66663 16.5L6.71834 20.5517V26.2818H12.4483L16.5 30.3335L20.5518 26.2818H26.2818V20.5517L30.3335 16.5L26.2818 12.4483V6.71834H20.5518ZM13.3026 8.78084L16.5 5.58344L19.6975 8.78084H24.2193V13.3026L27.4166 16.5L24.2193 19.6974V24.2193H19.6975L16.5 27.4167L13.3026 24.2193H8.78084V19.6974L5.58344 16.5L8.78084 13.3026V8.78084H13.3026Z" fill="#7E7E7E"/>
</svg>
