<svg width="35" height="35" viewBox="0 0 35 35" fill="none" xmlns="http://www.w3.org/2000/svg">
<path d="M15.3125 23.3333C15.3125 22.1252 16.2919 21.1458 17.5 21.1458C18.7081 21.1458 19.6875 22.1252 19.6875 23.3333C19.6875 24.5413 18.7081 25.5208 17.5 25.5208C16.2919 25.5208 15.3125 24.5413 15.3125 23.3333Z" fill="#0D4450"/>
<path fill-rule="evenodd" clip-rule="evenodd" d="M14.3068 5.84069C14.6455 5.70578 14.999 5.61105 15.36 5.55846C17.5085 5.24542 19.5892 6.45559 20.3793 8.47791L20.4887 8.75794C20.6241 9.10492 20.7208 9.46586 20.777 9.83415L21.0928 11.9084L23.2554 11.579L22.9395 9.50478C22.8592 8.97679 22.7205 8.45935 22.5261 7.9619L22.4167 7.68187C21.2562 4.71149 18.2004 2.93402 15.0447 3.39383C14.5145 3.47106 13.9953 3.61019 13.4976 3.80836C10.5348 4.98799 8.77703 8.05527 9.2572 11.208L9.30246 11.5052C9.38288 12.0332 9.52152 12.5506 9.71587 13.0481L10.6698 15.4898L10.1135 15.5341C8.53454 15.6603 7.24522 16.8472 6.98926 18.4104C6.4554 21.6707 6.4554 24.9961 6.98926 28.2565C7.24522 29.8197 8.53454 31.0066 10.1135 31.1326L12.2954 31.3069C15.7594 31.5834 19.2402 31.5834 22.7042 31.3069L24.8861 31.1326C26.465 31.0066 27.7544 29.8197 28.0103 28.2565C28.5442 24.9961 28.5442 21.6707 28.0103 18.4104C27.7544 16.8472 26.465 15.6603 24.8861 15.5341L22.7042 15.36C19.4578 15.1009 16.1968 15.0845 12.9486 15.3112L11.7534 12.252C11.6178 11.905 11.5211 11.5441 11.465 11.1758L11.4198 10.8786C11.0928 8.73214 12.2896 6.64383 14.3068 5.84069ZM22.5302 17.5405C19.1818 17.2733 15.8178 17.2733 12.4695 17.5405L10.2876 17.7148C9.71166 17.7607 9.24137 18.1937 9.14801 18.7639C8.65249 21.7901 8.65249 24.8768 9.14801 27.903C9.24137 28.4732 9.71166 28.9062 10.2876 28.9521L12.4695 29.1262C15.8176 29.3935 19.1818 29.3935 22.5302 29.1262L24.712 28.9521C25.2879 28.9062 25.7582 28.4732 25.8515 27.903C26.3471 24.8768 26.3471 21.7901 25.8515 18.7639C25.7582 18.1937 25.2879 17.7607 24.712 17.7148L22.5302 17.5405Z" fill="#0D4450"/>
</svg>
