<svg width="85" height="85" viewBox="0 0 85 85" fill="none" xmlns="http://www.w3.org/2000/svg">
<path fill-rule="evenodd" clip-rule="evenodd" d="M27.448 26.5628C27.448 18.2498 34.187 11.5107 42.5001 11.5107C50.8131 11.5107 57.5522 18.2498 57.5522 26.5628C57.5522 34.8759 50.8131 41.6149 42.5001 41.6149C34.187 41.6149 27.448 34.8759 27.448 26.5628ZM42.5001 16.8232C37.121 16.8232 32.7605 21.1838 32.7605 26.5628C32.7605 31.9418 37.121 36.3024 42.5001 36.3024C47.8792 36.3024 52.2397 31.9418 52.2397 26.5628C52.2397 21.1838 47.8792 16.8232 42.5001 16.8232Z" fill="white"/>
<path fill-rule="evenodd" clip-rule="evenodd" d="M28.3333 52.2393C23.9322 52.2393 20.3645 55.8071 20.3645 60.208V64.4166C20.3645 64.4807 20.4109 64.5352 20.4742 64.5455C35.0614 66.9273 49.9385 66.9273 64.5255 64.5455C64.5889 64.5352 64.6353 64.4807 64.6353 64.4166V60.208C64.6353 55.8071 61.0675 52.2393 56.6666 52.2393H55.4592C55.3661 52.2393 55.2733 52.2541 55.1844 52.2828L52.1191 53.284C45.8688 55.3248 39.1311 55.3248 32.8807 53.284L29.8153 52.2828C29.7266 52.2541 29.6338 52.2393 29.5405 52.2393H28.3333ZM15.052 60.208C15.052 52.8729 20.9982 46.9268 28.3333 46.9268H29.5405C30.1939 46.9268 30.8432 47.0302 31.4643 47.2328L34.5297 48.234C39.7087 49.9248 45.2911 49.9248 50.4701 48.234L53.5354 47.2328C54.1566 47.0302 54.8058 46.9268 55.4592 46.9268H56.6666C64.0017 46.9268 69.9478 52.8729 69.9478 60.208V64.4166C69.9478 67.0842 68.0144 69.3586 65.3816 69.7886C50.2275 72.2628 34.7724 72.2628 19.6182 69.7886C16.9853 69.3586 15.052 67.0842 15.052 64.4166V60.208Z" fill="white"/>
</svg>
